<mxfile host="app.diagrams.net" agent="Mozilla/5.0 (Windows NT 10.0; Win64; x64) AppleWebKit/537.36 (KHTML, like Gecko) Chrome/128.0.0.0 YaBrowser/24.10.0.0 Safari/537.36" version="24.8.6">
  <diagram name="Страница — 1" id="7PxlvfJe7dRjm_R8S5u_">
    <mxGraphModel dx="995" dy="313" grid="0" gridSize="10" guides="1" tooltips="1" connect="1" arrows="1" fold="1" page="0" pageScale="1" pageWidth="827" pageHeight="1169" math="0" shadow="0">
      <root>
        <mxCell id="0" />
        <mxCell id="1" parent="0" />
        <mxCell id="4ddiLuwdZmVzRpiKrh0x-5" style="edgeStyle=none;curved=1;rounded=0;orthogonalLoop=1;jettySize=auto;html=1;entryX=0.5;entryY=0;entryDx=0;entryDy=0;fontSize=12;startSize=8;endSize=8;" edge="1" parent="1" source="4ddiLuwdZmVzRpiKrh0x-2" target="4ddiLuwdZmVzRpiKrh0x-3">
          <mxGeometry relative="1" as="geometry" />
        </mxCell>
        <mxCell id="4ddiLuwdZmVzRpiKrh0x-2" value="Начало" style="ellipse;whiteSpace=wrap;html=1;" vertex="1" parent="1">
          <mxGeometry x="786" y="585" width="120" height="57" as="geometry" />
        </mxCell>
        <mxCell id="4ddiLuwdZmVzRpiKrh0x-7" style="edgeStyle=none;curved=1;rounded=0;orthogonalLoop=1;jettySize=auto;html=1;entryX=0.5;entryY=0;entryDx=0;entryDy=0;fontSize=12;startSize=8;endSize=8;" edge="1" parent="1" source="4ddiLuwdZmVzRpiKrh0x-3" target="4ddiLuwdZmVzRpiKrh0x-8">
          <mxGeometry relative="1" as="geometry">
            <mxPoint x="848" y="764" as="targetPoint" />
          </mxGeometry>
        </mxCell>
        <mxCell id="4ddiLuwdZmVzRpiKrh0x-3" value="Ввод M, i, n" style="shape=parallelogram;perimeter=parallelogramPerimeter;whiteSpace=wrap;html=1;fixedSize=1;" vertex="1" parent="1">
          <mxGeometry x="788" y="668" width="120" height="60" as="geometry" />
        </mxCell>
        <mxCell id="4ddiLuwdZmVzRpiKrh0x-10" style="edgeStyle=none;curved=1;rounded=0;orthogonalLoop=1;jettySize=auto;html=1;entryX=0.5;entryY=0;entryDx=0;entryDy=0;fontSize=12;startSize=8;endSize=8;" edge="1" parent="1" source="4ddiLuwdZmVzRpiKrh0x-8" target="4ddiLuwdZmVzRpiKrh0x-9">
          <mxGeometry relative="1" as="geometry" />
        </mxCell>
        <mxCell id="4ddiLuwdZmVzRpiKrh0x-8" value="M = M * (((1/100) * i) + 1)&amp;nbsp;" style="rounded=0;whiteSpace=wrap;html=1;" vertex="1" parent="1">
          <mxGeometry x="775.5" y="770" width="145" height="60" as="geometry" />
        </mxCell>
        <mxCell id="4ddiLuwdZmVzRpiKrh0x-15" style="edgeStyle=none;curved=1;rounded=0;orthogonalLoop=1;jettySize=auto;html=1;entryX=0.5;entryY=0;entryDx=0;entryDy=0;fontSize=12;startSize=8;endSize=8;" edge="1" parent="1" source="4ddiLuwdZmVzRpiKrh0x-9" target="4ddiLuwdZmVzRpiKrh0x-11">
          <mxGeometry relative="1" as="geometry" />
        </mxCell>
        <mxCell id="4ddiLuwdZmVzRpiKrh0x-9" value="n = n - 1" style="rounded=0;whiteSpace=wrap;html=1;" vertex="1" parent="1">
          <mxGeometry x="788" y="856" width="120" height="60" as="geometry" />
        </mxCell>
        <mxCell id="4ddiLuwdZmVzRpiKrh0x-21" style="edgeStyle=none;curved=1;rounded=0;orthogonalLoop=1;jettySize=auto;html=1;fontSize=12;startSize=8;endSize=8;" edge="1" parent="1" source="4ddiLuwdZmVzRpiKrh0x-11" target="4ddiLuwdZmVzRpiKrh0x-22">
          <mxGeometry relative="1" as="geometry">
            <mxPoint x="848" y="1025.5675675675675" as="targetPoint" />
          </mxGeometry>
        </mxCell>
        <mxCell id="4ddiLuwdZmVzRpiKrh0x-11" value="n &amp;gt; 0" style="rhombus;whiteSpace=wrap;html=1;" vertex="1" parent="1">
          <mxGeometry x="808" y="938" width="80" height="58" as="geometry" />
        </mxCell>
        <mxCell id="4ddiLuwdZmVzRpiKrh0x-18" value="" style="endArrow=none;html=1;rounded=0;fontSize=12;startSize=8;endSize=8;curved=1;" edge="1" parent="1">
          <mxGeometry width="50" height="50" relative="1" as="geometry">
            <mxPoint x="700" y="966" as="sourcePoint" />
            <mxPoint x="700" y="799" as="targetPoint" />
          </mxGeometry>
        </mxCell>
        <mxCell id="4ddiLuwdZmVzRpiKrh0x-19" value="" style="endArrow=none;html=1;rounded=0;fontSize=12;startSize=8;endSize=8;curved=1;" edge="1" parent="1">
          <mxGeometry width="50" height="50" relative="1" as="geometry">
            <mxPoint x="700" y="966" as="sourcePoint" />
            <mxPoint x="808" y="966" as="targetPoint" />
          </mxGeometry>
        </mxCell>
        <mxCell id="4ddiLuwdZmVzRpiKrh0x-20" value="" style="endArrow=classic;html=1;rounded=0;fontSize=12;startSize=8;endSize=8;curved=1;" edge="1" parent="1" target="4ddiLuwdZmVzRpiKrh0x-8">
          <mxGeometry width="50" height="50" relative="1" as="geometry">
            <mxPoint x="700" y="800" as="sourcePoint" />
            <mxPoint x="894" y="825" as="targetPoint" />
          </mxGeometry>
        </mxCell>
        <mxCell id="4ddiLuwdZmVzRpiKrh0x-24" style="edgeStyle=none;curved=1;rounded=0;orthogonalLoop=1;jettySize=auto;html=1;fontSize=12;startSize=8;endSize=8;" edge="1" parent="1" source="4ddiLuwdZmVzRpiKrh0x-22" target="4ddiLuwdZmVzRpiKrh0x-23">
          <mxGeometry relative="1" as="geometry" />
        </mxCell>
        <mxCell id="4ddiLuwdZmVzRpiKrh0x-22" value="Вывод M" style="shape=parallelogram;perimeter=parallelogramPerimeter;whiteSpace=wrap;html=1;fixedSize=1;" vertex="1" parent="1">
          <mxGeometry x="788" y="1034.9975675675676" width="120" height="60" as="geometry" />
        </mxCell>
        <mxCell id="4ddiLuwdZmVzRpiKrh0x-23" value="Конец" style="ellipse;whiteSpace=wrap;html=1;" vertex="1" parent="1">
          <mxGeometry x="788" y="1120" width="120" height="62" as="geometry" />
        </mxCell>
      </root>
    </mxGraphModel>
  </diagram>
</mxfile>
